<?xml version="1.0" encoding="UTF-8" standalone="no"?>
<svg width="1024" height="1024" viewBox="0 0 1024 1024" xmlns="http://www.w3.org/2000/svg">
  <defs>
    <style>
      .outline { fill: none; stroke: #6b3a1e; stroke-width: 16; stroke-linecap: round; stroke-linejoin: round; }
      .fill-brown { fill: #6b3a1e; }
      .fill-orange { fill: #f4a23a; }
      .fill-orange-dark { fill: #e0872d; }
      .fill-purple { fill: #c9a6ff; }
      .fill-nose { fill: #6b3a1e; }
    </style>
  </defs>

  <!-- Light purple background -->
  <rect x="0" y="0" width="1024" height="1024" class="fill-purple"/>

  <!-- Cat group -->
  <g transform="translate(312,180) scale(0.9)">
    <!-- Tail -->
    <path class="outline fill-orange" d="M542,590
             c70,20 110,84 96,148
             c-10,44 -41,76 -81,88
             c-49,15 -104,-8 -131,-46
             c-34,-48 -10,-112 33,-140
             c29,-19 55,-42 83,-50z"/>
    <!-- Tail stripes -->
    <path class="fill-orange-dark" d="M580,722c20-6 36-16 50-30c-6-25-23-46-47-62c-12,7-25,16-38,26c12,17 23,40 35,66z"/>
    <path class="fill-orange-dark" d="M520,774c7,18 18,33 33,45c15-3 28-8 39-16c-7-18 -16-34 -27-48c-15,8 -29,14 -45,19z"/>

    <!-- Body -->
    <path class="outline fill-orange" d="M160,320
             c-80,0 -120,80 -120,200
             c0,160 120,260 280,260
             c160,0 280,-100 280,-260
             c0,-120 -40,-200 -120,-200
             c-40,0 -60,20 -80,44
             c-20,-24 -40,-44 -80,-44
             c-40,0 -60,20 -80,44
             c-20,-24 -40,-44 -80,-44z"/>

    <!-- Paws -->
    <path class="outline fill-orange" d="M220,740c-30,0 -60,30 -60,60c0,22 18,40 40,40h40c22,0 40-18 40-40c0-30 -30-60 -60-60z"/>
    <path class="outline fill-orange" d="M420,740c-30,0 -60,30 -60,60c0,22 18,40 40,40h40c22,0 40-18 40-40c0-30 -30-60 -60-60z"/>

    <!-- Belly stripes -->
    <ellipse cx="216" cy="620" rx="26" ry="18" class="fill-orange-dark"/>
    <ellipse cx="312" cy="660" rx="26" ry="18" class="fill-orange-dark"/>
    <ellipse cx="408" cy="620" rx="26" ry="18" class="fill-orange-dark"/>

    <!-- Head -->
    <path class="outline fill-orange" d="M120,120
             c0,-80 60,-120 120,-120
             c60,0 100,28 120,72
             c20,-44 60,-72 120,-72
             c60,0 120,40 120,120
             c0,120 -120,200 -240,200
             c-120,0 -240,-80 -240,-200z"/>
    <!-- Ears inner -->
    <path class="fill-orange-dark" d="M220,92c-22,12 -36,34 -40,70c22,4 44,2 64,-4c-2,-28 -8,-50 -24,-66z"/>
    <path class="fill-orange-dark" d="M580,92c-22,12 -36,34 -40,70c22,4 44,2 64,-4c-2,-28 -8,-50 -24,-66z"/>

    <!-- Face: eyes closed -->
    <path class="fill-brown" d="M300,250c20,0 36,-16 36,-16s-16,-16 -36,-16s-36,16 -36,16s16,16 36,16z"/>
    <path class="fill-brown" d="M500,250c20,0 36,-16 36,-16s-16,-16 -36,-16s-36,16 -36,16s16,16 36,16z"/>
    <!-- Nose and mouth -->
    <circle cx="400" cy="268" r="10" class="fill-nose"/>
    <path class="outline" d="M400,280c0,20 -24,32 -48,32"/>
    <path class="outline" d="M400,280c0,20 24,32 48,32"/>

    <!-- Whiskers -->
    <path class="outline" d="M260,268h100"/>
    <path class="outline" d="M248,244h96"/>
    <path class="outline" d="M248,292h96"/>
    <path class="outline" d="M436,268h100"/>
    <path class="outline" d="M448,244h96"/>
    <path class="outline" d="M448,292h96"/>

    <!-- Head stripes -->
    <rect x="340" y="128" width="20" height="60" rx="8" class="fill-orange-dark"/>
    <rect x="372" y="128" width="20" height="50" rx="8" class="fill-orange-dark"/>
    <rect x="308" y="128" width="20" height="50" rx="8" class="fill-orange-dark"/>
  </g>
</svg>
